# xmcd CD database file
#
# Track frame offsets:
#	150
#	20280
#	44372
#	65417
#	88188
#	108003
#	128831
#	146430
#	161823
#	187278
#	227780
#
# Disc length: 3343 seconds
#
# Revision: 0
# Processed by: cddbd v1.5.1PL2 Copyright (c) Steve Scherf et al.
# Submitted via: CDex 1.51
#
DISCID=950d0d0b
DTITLE=FictionJunction YUUKA - Destination
DYEAR=2005
DGENRE=Vocal
TTITLE0=I'm here
TTITLE1=destination
TTITLE2=nowhere
TTITLE3=暁の車
TTITLE4=誰もいない場所
TTITLE5=聖夜
TTITLE6=しずかなことば
TTITLE7=ふたり
TTITLE8=瞳の欠片
TTITLE9=nostalgia
TTITLE10=inside your heart
EXTD=YEAR: 2005
EXTT0=
EXTT1=
EXTT2=
EXTT3=
EXTT4=
EXTT5=
EXTT6=
EXTT7=
EXTT8=
EXTT9=
EXTT10=
PLAYORDER=
